<svg width="100" height="100" viewBox="0 0 100 100" fill="none" xmlns="http://www.w3.org/2000/svg">
<g id="account">
<path id="Vector" d="M50.0001 16.6667C54.4204 16.6667 58.6596 18.4226 61.7852 21.5482C64.9108 24.6738 66.6668 28.913 66.6668 33.3333C66.6668 37.7536 64.9108 41.9928 61.7852 45.1184C58.6596 48.244 54.4204 50 50.0001 50C45.5798 50 41.3406 48.244 38.215 45.1184C35.0894 41.9928 33.3334 37.7536 33.3334 33.3333C33.3334 28.913 35.0894 24.6738 38.215 21.5482C41.3406 18.4226 45.5798 16.6667 50.0001 16.6667ZM50.0001 58.3333C68.4168 58.3333 83.3334 65.7917 83.3334 75V83.3333H16.6667V75C16.6667 65.7917 31.5834 58.3333 50.0001 58.3333Z" fill="#1E2022"/>
</g>
</svg>
