<svg width="832" height="832" viewBox="0 0 832 832" fill="none" xmlns="http://www.w3.org/2000/svg">
<path d="M832 636.314H0V636.73H832V636.314Z" fill="#EBEBEB"/>
<path d="M748.634 663.087H693.522V663.503H748.634V663.087Z" fill="#EBEBEB"/>
<path d="M551.15 667.614H536.69V668.03H551.15V667.614Z" fill="#EBEBEB"/>
<path d="M691.858 647.645H659.926V648.061H691.858V647.645Z" fill="#EBEBEB"/>
<path d="M159.162 650.441H87.2935V650.857H159.162V650.441Z" fill="#EBEBEB"/>
<path d="M184.521 650.441H173.988V650.857H184.521V650.441Z" fill="#EBEBEB"/>
<path d="M374.65 657.463H218.766V657.879H374.65V657.463Z" fill="#EBEBEB"/>
<path d="M394.368 562.099H73.0663C70.5493 562.095 68.1368 561.092 66.3586 559.31C64.5803 557.529 63.5815 555.115 63.5815 552.598V100.938C63.6035 98.4356 64.6119 96.0427 66.3878 94.2793C68.1637 92.5159 70.5636 91.5243 73.0663 91.52H394.368C396.888 91.52 399.305 92.5211 401.087 94.3029C402.868 96.0848 403.87 98.5015 403.87 101.021V552.598C403.87 555.118 402.868 557.534 401.087 559.316C399.305 561.098 396.888 562.099 394.368 562.099ZM73.0663 91.8528C70.6596 91.8572 68.353 92.8164 66.6527 94.5198C64.9525 96.2231 63.9975 98.5315 63.9975 100.938V552.598C63.9975 555.005 64.9525 557.313 66.6527 559.016C68.353 560.72 70.6596 561.679 73.0663 561.683H394.368C396.776 561.679 399.085 560.72 400.788 559.017C402.49 557.314 403.449 555.006 403.454 552.598V100.938C403.449 98.53 402.49 96.2216 400.788 94.5187C399.085 92.8158 396.776 91.8572 394.368 91.8528H73.0663Z" fill="#EBEBEB"/>
<path d="M754.308 562.099H432.989C430.471 562.095 428.057 561.092 426.276 559.311C424.495 557.531 423.492 555.116 423.488 552.598V100.938C423.514 98.4341 424.526 96.0412 426.305 94.2783C428.084 92.5153 430.485 91.5243 432.989 91.52H754.308C756.808 91.5287 759.203 92.5222 760.976 94.2851C762.748 96.0481 763.754 98.4385 763.776 100.938V552.598C763.776 555.112 762.78 557.524 761.005 559.305C759.23 561.085 756.822 562.09 754.308 562.099ZM432.989 91.8528C430.581 91.8572 428.273 92.8158 426.57 94.5187C424.867 96.2216 423.908 98.53 423.904 100.938V552.598C423.908 555.006 424.867 557.314 426.57 559.017C428.273 560.72 430.581 561.679 432.989 561.683H754.308C756.716 561.679 759.024 560.72 760.727 559.017C762.43 557.314 763.389 555.006 763.393 552.598V100.938C763.389 98.53 762.43 96.2216 760.727 94.5187C759.024 92.8158 756.716 91.8572 754.308 91.8528H432.989Z" fill="#EBEBEB"/>
<path d="M735.255 634.2V552.132H697.382V476.037H692.041V519.667H677.464V507.603H651.256V465.837H646.397V414.785H642.504V464.905H633.285V539.153H615.796V464.905H584.247V527.688H551.117V451.593H545.775V495.206H531.199V483.142H504.991V441.376H500.132V390.341H496.238V440.461H487.019V514.692H469.547V440.461H437.981V512.279H416.699V470.513H411.84V419.461H407.963V469.581H398.728V543.828H381.256V469.581H349.69V543.828H334.148V552.132H306.941V476.037H301.6V519.667H287.023V507.603H260.815V465.837H255.956V414.785H252.063V464.905H243.61V460.728H212.043V464.905H194.555V460.728H185.336V410.609H181.459V461.66H176.6V503.41H150.376V515.474H135.816V471.86H130.474V547.955H92.6016V634.2H735.255Z" fill="#EBEBEB"/>
<path d="M247.157 252.366C270.752 242.592 281.957 215.542 272.184 191.947C262.41 168.352 235.36 157.147 211.765 166.921C188.17 176.694 176.965 203.744 186.738 227.339C196.512 250.935 223.562 262.139 247.157 252.366Z" fill="#FAFAFA"/>
<path d="M205.487 209.132C205.485 207.879 205.19 206.644 204.627 205.525C204.064 204.406 203.247 203.434 202.243 202.686C201.238 201.938 200.072 201.435 198.839 201.216C197.605 200.998 196.338 201.07 195.137 201.427C195.496 199.009 195.329 196.541 194.648 194.193C193.966 191.845 192.785 189.672 191.186 187.822C189.588 185.972 187.609 184.489 185.384 183.474C183.16 182.46 180.743 181.937 178.298 181.942C177.248 181.94 176.2 182.04 175.169 182.241C173.496 179.486 170.973 177.348 167.98 176.151C164.987 174.953 161.686 174.761 158.573 175.602C155.461 176.442 152.707 178.272 150.724 180.814C148.741 183.356 147.638 186.473 147.58 189.696H147.33C143.694 189.696 140.206 191.141 137.635 193.712C135.064 196.283 133.619 199.771 133.619 203.407C133.619 207.044 135.064 210.531 137.635 213.103C140.206 215.674 143.694 217.119 147.33 217.119H197.667C199.753 217.067 201.737 216.203 203.198 214.712C204.658 213.221 205.479 211.219 205.487 209.132Z" fill="#F0F0F0"/>
<path d="M711.826 320.503C711.824 319.25 711.529 318.016 710.966 316.897C710.402 315.778 709.586 314.806 708.581 314.058C707.576 313.31 706.411 312.807 705.177 312.588C703.944 312.369 702.676 312.442 701.476 312.799C701.835 310.38 701.668 307.913 700.986 305.565C700.304 303.217 699.124 301.044 697.525 299.194C695.926 297.344 693.947 295.861 691.723 294.846C689.498 293.831 687.081 293.308 684.636 293.313C683.581 293.314 682.529 293.409 681.491 293.596C679.802 290.855 677.269 288.736 674.273 287.557C671.277 286.378 667.979 286.204 664.875 287.059C661.771 287.914 659.028 289.753 657.058 292.3C655.089 294.847 653.999 297.965 653.952 301.184H653.702C650.066 301.184 646.578 302.629 644.007 305.2C641.436 307.771 639.991 311.259 639.991 314.895C639.991 318.532 641.436 322.019 644.007 324.591C646.578 327.162 650.066 328.607 653.702 328.607H704.038C706.139 328.546 708.133 327.663 709.589 326.147C711.045 324.632 711.849 322.605 711.826 320.503Z" fill="#F0F0F0"/>
<path d="M473.757 198.432C473.749 196.447 474.208 194.487 475.096 192.711C475.983 190.935 477.276 189.393 478.869 188.208C480.462 187.023 482.311 186.228 484.267 185.889C486.223 185.549 488.232 185.673 490.131 186.252C489.944 184.956 489.85 183.65 489.848 182.341C489.843 178.384 490.712 174.474 492.391 170.891C494.071 167.308 496.521 164.14 499.566 161.613C502.612 159.086 506.177 157.262 510.008 156.272C513.839 155.282 517.842 155.149 521.731 155.884C524.38 151.513 528.381 148.125 533.127 146.23C537.873 144.335 543.108 144.038 548.038 145.382C552.969 146.726 557.328 149.639 560.456 153.68C563.584 157.721 565.312 162.671 565.377 167.781H565.76C571.513 167.781 577.03 170.066 581.097 174.134C585.165 178.202 587.45 183.719 587.45 189.471C587.45 195.224 585.165 200.741 581.097 204.809C577.03 208.876 571.513 211.162 565.76 211.162H486.121C482.807 211.071 479.66 209.689 477.351 207.311C475.041 204.933 473.752 201.747 473.757 198.432Z" fill="#F0F0F0"/>
<path d="M238.751 336.91C238.748 334.523 239.304 332.169 240.374 330.036C241.445 327.902 242.999 326.049 244.914 324.624C246.829 323.2 249.051 322.243 251.402 321.831C253.752 321.418 256.167 321.562 258.453 322.25C258.218 320.697 258.101 319.129 258.103 317.558C258.103 308.961 261.518 300.716 267.597 294.637C273.676 288.558 281.921 285.143 290.518 285.143C292.516 285.148 294.51 285.332 296.475 285.692C299.65 280.409 304.464 276.308 310.184 274.013C315.904 271.717 322.217 271.352 328.164 272.974C334.11 274.595 339.364 278.115 343.126 282.997C346.889 287.879 348.954 293.856 349.007 300.019H349.44C352.923 299.931 356.388 300.541 359.632 301.813C362.875 303.086 365.831 304.994 368.326 307.426C370.82 309.859 372.803 312.766 374.156 315.976C375.51 319.186 376.207 322.635 376.207 326.119C376.207 329.603 375.51 333.052 374.156 336.262C372.803 339.473 370.82 342.38 368.326 344.812C365.831 347.244 362.875 349.153 359.632 350.425C356.388 351.697 352.923 352.307 349.44 352.219H253.594C249.613 352.102 245.836 350.437 243.064 347.578C240.292 344.719 238.745 340.892 238.751 336.91Z" fill="#F0F0F0"/>
<path d="M306.342 233.21C306.342 231.886 305.816 230.616 304.88 229.68C303.944 228.744 302.674 228.218 301.35 228.218C300.865 228.212 300.382 228.285 299.919 228.434C299.992 227.921 300.031 227.404 300.036 226.886C300.036 224.08 298.921 221.388 296.936 219.403C294.951 217.418 292.26 216.303 289.453 216.303C288.8 216.305 288.148 216.366 287.506 216.486C286.463 214.771 284.89 213.442 283.026 212.699C281.161 211.956 279.105 211.839 277.168 212.367C275.231 212.895 273.519 214.039 272.289 215.625C271.059 217.212 270.379 219.155 270.35 221.162H270.2C267.941 221.162 265.774 222.06 264.176 223.658C262.578 225.255 261.681 227.422 261.681 229.682C261.681 231.942 262.578 234.109 264.176 235.706C265.774 237.304 267.941 238.202 270.2 238.202H301.5C302.798 238.163 304.03 237.62 304.934 236.688C305.838 235.756 306.343 234.508 306.342 233.21Z" fill="#F0F0F0"/>
<path d="M124.334 384.966C124.334 383.642 124.86 382.373 125.796 381.436C126.732 380.5 128.002 379.974 129.326 379.974C129.816 379.973 130.303 380.04 130.774 380.174C130.692 379.668 130.653 379.156 130.657 378.643C130.657 377.253 130.931 375.877 131.463 374.593C131.995 373.309 132.774 372.143 133.757 371.16C134.74 370.177 135.906 369.398 137.19 368.866C138.474 368.334 139.85 368.06 141.24 368.06C141.893 368.062 142.545 368.123 143.187 368.243C144.23 366.528 145.803 365.199 147.667 364.456C149.532 363.713 151.588 363.596 153.525 364.124C155.462 364.652 157.174 365.795 158.404 367.382C159.634 368.968 160.314 370.912 160.343 372.919H160.493C162.752 372.919 164.919 373.817 166.517 375.414C168.115 377.012 169.012 379.179 169.012 381.439C169.012 383.698 168.115 385.865 166.517 387.463C164.919 389.061 162.752 389.958 160.493 389.958H129.193C127.892 389.924 126.656 389.382 125.749 388.45C124.841 387.518 124.334 386.268 124.334 384.966Z" fill="#F0F0F0"/>
<path d="M592.733 401.274C592.733 399.95 593.259 398.68 594.196 397.744C595.132 396.808 596.401 396.282 597.725 396.282C598.215 396.28 598.702 396.347 599.173 396.481C599.092 395.975 599.053 395.463 599.057 394.95C599.057 392.144 600.172 389.452 602.156 387.467C604.141 385.482 606.833 384.367 609.64 384.367C610.293 384.369 610.945 384.43 611.587 384.55C612.63 382.835 614.202 381.506 616.067 380.763C617.932 380.02 619.988 379.903 621.924 380.431C623.861 380.959 625.574 382.103 626.803 383.689C628.033 385.276 628.714 387.219 628.742 389.226H628.892C631.152 389.226 633.319 390.124 634.916 391.722C636.514 393.319 637.412 395.486 637.412 397.746C637.412 400.006 636.514 402.173 634.916 403.77C633.319 405.368 631.152 406.266 628.892 406.266H597.592C596.292 406.231 595.056 405.69 594.148 404.757C593.241 403.825 592.733 402.575 592.733 401.274Z" fill="#F0F0F0"/>
<path d="M416 711.46C594.185 711.46 738.633 703.026 738.633 692.623C738.633 682.22 594.185 673.787 416 673.787C237.815 673.787 93.3669 682.22 93.3669 692.623C93.3669 703.026 237.815 711.46 416 711.46Z" fill="#F5F5F5"/>
<path d="M646.963 201.394L575.827 309.704L572.699 314.479L566.509 317.341L346.328 419.661L368.077 494.191L373.052 511.231L355.813 525.475L207.268 669.827H84.3481L306.592 485.256L293.13 411.973L289.469 392.022L306.675 384.101L541.332 276.058L617.76 181.509L597.259 177.449L661.706 150.708L658.395 220.413L646.963 201.394Z" fill="#263238"/>
<path opacity="0.6" d="M646.963 201.394L575.827 309.704L572.699 314.479L566.509 317.341L346.328 419.661L368.077 494.191L373.052 511.231L355.813 525.475L207.268 669.827H84.3481L306.592 485.256L293.13 411.973L289.469 392.022L306.675 384.101L541.332 276.058L617.76 181.509L597.259 177.449L661.706 150.708L658.395 220.413L646.963 201.394Z" fill="#FAFAFA"/>
<path d="M609.773 663.087H491.962C490.804 663.087 489.865 664.026 489.865 665.184V692.041C489.865 693.199 490.804 694.138 491.962 694.138H609.773C610.931 694.138 611.869 693.199 611.869 692.041V665.184C611.869 664.026 610.931 663.087 609.773 663.087Z" fill="#1E2022"/>
<path opacity="0.2" d="M500.149 664.885H495.323V692.623H500.149V664.885Z" fill="black"/>
<path opacity="0.2" d="M511.114 664.751H507.603V692.49H511.114V664.751Z" fill="black"/>
<path opacity="0.2" d="M521.215 664.885H519.451V692.623H521.215V664.885Z" fill="black"/>
<path opacity="0.2" d="M534.826 664.751H533.944V692.49H534.826V664.751Z" fill="black"/>
<path opacity="0.2" d="M601.586 692.49H606.412V664.751H601.586V692.49Z" fill="black"/>
<path opacity="0.2" d="M590.62 692.623H594.131V664.885H590.62V692.623Z" fill="black"/>
<path opacity="0.2" d="M580.536 692.49H582.284V664.751H580.536V692.49Z" fill="black"/>
<path opacity="0.2" d="M566.908 692.623H567.79V664.885H566.908V692.623Z" fill="black"/>
<path opacity="0.2" d="M550.651 692.623H551.083V664.885H550.651V692.623Z" fill="black"/>
<path opacity="0.2" d="M608.608 667.813H493.376C492.988 667.813 492.615 667.659 492.341 667.384C492.066 667.11 491.912 666.737 491.912 666.349C491.916 665.962 492.072 665.592 492.345 665.318C492.619 665.045 492.989 664.889 493.376 664.885H608.608C608.996 664.885 609.369 665.039 609.643 665.313C609.918 665.588 610.072 665.96 610.072 666.349C610.075 666.542 610.038 666.733 609.965 666.912C609.893 667.09 609.785 667.253 609.648 667.389C609.512 667.526 609.35 667.633 609.171 667.706C608.992 667.779 608.801 667.815 608.608 667.813Z" fill="white"/>
<path d="M613.101 632.12H495.29C494.132 632.12 493.193 633.059 493.193 634.217V661.074C493.193 662.232 494.132 663.171 495.29 663.171H613.101C614.259 663.171 615.198 662.232 615.198 661.074V634.217C615.198 633.059 614.259 632.12 613.101 632.12Z" fill="#1E2022"/>
<path opacity="0.2" d="M503.476 633.917H498.651V661.656H503.476V633.917Z" fill="black"/>
<path opacity="0.2" d="M514.459 633.784H510.948V661.523H514.459V633.784Z" fill="black"/>
<path opacity="0.2" d="M524.543 633.917H522.796V661.656H524.543V633.917Z" fill="black"/>
<path opacity="0.2" d="M538.154 633.784H537.272V661.523H538.154V633.784Z" fill="black"/>
<path opacity="0.2" d="M604.931 661.507H609.756V633.768H604.931V661.507Z" fill="black"/>
<path opacity="0.2" d="M593.948 661.64H597.459V633.901H593.948V661.64Z" fill="black"/>
<path opacity="0.2" d="M583.848 661.507H585.612V633.768H583.848V661.507Z" fill="black"/>
<path opacity="0.2" d="M570.236 661.64H571.118V633.901H570.236V661.64Z" fill="black"/>
<path opacity="0.2" d="M553.979 661.64H554.412V633.901H553.979V661.64Z" fill="black"/>
<path opacity="0.2" d="M611.936 636.846H496.704C496.317 636.842 495.947 636.686 495.673 636.412C495.4 636.139 495.244 635.769 495.24 635.382C495.24 634.993 495.394 634.621 495.669 634.346C495.943 634.072 496.316 633.917 496.704 633.917H611.936C612.129 633.915 612.32 633.952 612.499 634.024C612.678 634.097 612.84 634.205 612.976 634.341C613.113 634.478 613.221 634.64 613.293 634.819C613.366 634.997 613.403 635.189 613.4 635.382C613.4 635.77 613.246 636.143 612.971 636.417C612.697 636.692 612.324 636.846 611.936 636.846Z" fill="white"/>
<path d="M613.101 601.153H495.29C494.132 601.153 493.193 602.092 493.193 603.25V630.107C493.193 631.265 494.132 632.204 495.29 632.204H613.101C614.259 632.204 615.198 631.265 615.198 630.107V603.25C615.198 602.092 614.259 601.153 613.101 601.153Z" fill="#1E2022"/>
<path opacity="0.2" d="M503.476 602.934H498.651V630.673H503.476V602.934Z" fill="black"/>
<path opacity="0.2" d="M514.459 602.801H510.948V630.54H514.459V602.801Z" fill="black"/>
<path opacity="0.2" d="M524.543 602.934H522.796V630.673H524.543V602.934Z" fill="black"/>
<path opacity="0.2" d="M538.154 602.801H537.272V630.54H538.154V602.801Z" fill="black"/>
<path opacity="0.2" d="M604.931 630.54H609.756V602.801H604.931V630.54Z" fill="black"/>
<path opacity="0.2" d="M593.948 630.673H597.459V602.934H593.948V630.673Z" fill="black"/>
<path opacity="0.2" d="M583.848 630.54H585.612V602.801H583.848V630.54Z" fill="black"/>
<path opacity="0.2" d="M570.236 630.673H571.118V602.934H570.236V630.673Z" fill="black"/>
<path opacity="0.2" d="M553.979 630.673H554.412V602.934H553.979V630.673Z" fill="black"/>
<path opacity="0.2" d="M611.936 605.862H496.704C496.316 605.862 495.943 605.708 495.669 605.434C495.394 605.159 495.24 604.787 495.24 604.398C495.244 604.011 495.4 603.641 495.673 603.368C495.947 603.094 496.317 602.938 496.704 602.934H611.936C612.324 602.934 612.697 603.088 612.971 603.363C613.246 603.637 613.4 604.01 613.4 604.398C613.403 604.591 613.366 604.783 613.293 604.961C613.221 605.14 613.113 605.302 612.976 605.439C612.84 605.575 612.678 605.683 612.499 605.756C612.32 605.828 612.129 605.865 611.936 605.862Z" fill="white"/>
<path d="M609.773 570.17H491.962C490.804 570.17 489.865 571.108 489.865 572.266V599.123C489.865 600.281 490.804 601.22 491.962 601.22H609.773C610.931 601.22 611.869 600.281 611.869 599.123V572.266C611.869 571.108 610.931 570.17 609.773 570.17Z" fill="#1E2022"/>
<path opacity="0.2" d="M500.149 571.967H495.323V599.706H500.149V571.967Z" fill="black"/>
<path opacity="0.2" d="M511.114 571.834H507.603V599.573H511.114V571.834Z" fill="black"/>
<path opacity="0.2" d="M521.215 571.967H519.451V599.706H521.215V571.967Z" fill="black"/>
<path opacity="0.2" d="M534.826 571.834H533.944V599.573H534.826V571.834Z" fill="black"/>
<path opacity="0.2" d="M601.586 599.556H606.412V571.817H601.586V599.556Z" fill="black"/>
<path opacity="0.2" d="M590.62 599.689H594.131V571.95H590.62V599.689Z" fill="black"/>
<path opacity="0.2" d="M580.536 599.556H582.284V571.817H580.536V599.556Z" fill="black"/>
<path opacity="0.2" d="M566.908 599.689H567.79V571.95H566.908V599.689Z" fill="black"/>
<path opacity="0.2" d="M550.651 599.689H551.083V571.95H550.651V599.689Z" fill="black"/>
<path opacity="0.2" d="M608.608 574.895H493.376C492.989 574.891 492.619 574.735 492.345 574.462C492.072 574.188 491.916 573.818 491.912 573.431C491.912 573.043 492.066 572.67 492.341 572.396C492.615 572.121 492.988 571.967 493.376 571.967H608.608C608.801 571.965 608.992 572.001 609.171 572.074C609.35 572.146 609.512 572.254 609.648 572.391C609.785 572.527 609.893 572.689 609.965 572.868C610.038 573.047 610.075 573.238 610.072 573.431C610.072 573.819 609.918 574.192 609.643 574.466C609.369 574.741 608.996 574.895 608.608 574.895Z" fill="white"/>
<path d="M604.781 539.203H486.97C485.812 539.203 484.873 540.141 484.873 541.299V568.156C484.873 569.314 485.812 570.253 486.97 570.253H604.781C605.939 570.253 606.877 569.314 606.877 568.156V541.299C606.877 540.141 605.939 539.203 604.781 539.203Z" fill="#1E2022"/>
<path opacity="0.2" d="M495.157 540.983H490.331V568.722H495.157V540.983Z" fill="black"/>
<path opacity="0.2" d="M506.122 540.85H502.611V568.589H506.122V540.85Z" fill="black"/>
<path opacity="0.2" d="M516.206 540.983H514.459V568.722H516.206V540.983Z" fill="black"/>
<path opacity="0.2" d="M529.834 540.85H528.952V568.589H529.834V540.85Z" fill="black"/>
<path opacity="0.2" d="M596.594 568.589H601.419V540.85H596.594V568.589Z" fill="black"/>
<path opacity="0.2" d="M585.612 568.722H589.123V540.983H585.612V568.722Z" fill="black"/>
<path opacity="0.2" d="M575.544 568.589H577.292V540.85H575.544V568.589Z" fill="black"/>
<path opacity="0.2" d="M561.933 568.722H562.815V540.983H561.933V568.722Z" fill="black"/>
<path opacity="0.2" d="M545.659 568.722H546.092V540.983H545.659V568.722Z" fill="black"/>
<path opacity="0.2" d="M603.616 543.912H488.384C488.191 543.914 488 543.878 487.821 543.805C487.642 543.732 487.48 543.624 487.344 543.488C487.207 543.351 487.1 543.189 487.027 543.01C486.954 542.832 486.918 542.64 486.92 542.447C486.92 542.059 487.074 541.687 487.349 541.412C487.623 541.137 487.996 540.983 488.384 540.983H603.616C604.004 540.983 604.377 541.137 604.652 541.412C604.926 541.687 605.08 542.059 605.08 542.447C605.083 542.64 605.046 542.832 604.973 543.01C604.901 543.189 604.793 543.351 604.657 543.488C604.52 543.624 604.358 543.732 604.179 543.805C604 543.878 603.809 543.914 603.616 543.912Z" fill="white"/>
<path d="M609.773 508.219H491.962C490.804 508.219 489.865 509.158 489.865 510.315V537.172C489.865 538.33 490.804 539.269 491.962 539.269H609.773C610.931 539.269 611.869 538.33 611.869 537.172V510.315C611.869 509.158 610.931 508.219 609.773 508.219Z" fill="#1E2022"/>
<path opacity="0.2" d="M500.149 510.016H495.323V537.755H500.149V510.016Z" fill="black"/>
<path opacity="0.2" d="M511.114 509.883H507.603V537.622H511.114V509.883Z" fill="black"/>
<path opacity="0.2" d="M521.215 510.016H519.451V537.755H521.215V510.016Z" fill="black"/>
<path opacity="0.2" d="M534.826 509.883H533.944V537.622H534.826V509.883Z" fill="black"/>
<path opacity="0.2" d="M601.586 537.605H606.412V509.866H601.586V537.605Z" fill="black"/>
<path opacity="0.2" d="M590.62 537.738H594.131V509.999H590.62V537.738Z" fill="black"/>
<path opacity="0.2" d="M580.536 537.605H582.284V509.866H580.536V537.605Z" fill="black"/>
<path opacity="0.2" d="M566.908 537.738H567.79V509.999H566.908V537.738Z" fill="black"/>
<path opacity="0.2" d="M550.651 537.738H551.083V509.999H550.651V537.738Z" fill="black"/>
<path opacity="0.2" d="M608.608 512.945H493.376C492.988 512.945 492.615 512.79 492.341 512.516C492.066 512.241 491.912 511.869 491.912 511.48C491.912 511.092 492.066 510.72 492.341 510.445C492.615 510.17 492.988 510.016 493.376 510.016H608.608C608.801 510.014 608.992 510.05 609.171 510.123C609.35 510.196 609.512 510.304 609.648 510.44C609.785 510.576 609.893 510.739 609.965 510.917C610.038 511.096 610.075 511.287 610.072 511.48C610.075 511.673 610.038 511.865 609.965 512.043C609.893 512.222 609.785 512.384 609.648 512.521C609.512 512.657 609.35 512.765 609.171 512.838C608.992 512.911 608.801 512.947 608.608 512.945Z" fill="white"/>
<path d="M609.773 477.252H491.962C490.804 477.252 489.865 478.191 489.865 479.349V506.205C489.865 507.363 490.804 508.302 491.962 508.302H609.773C610.931 508.302 611.869 507.363 611.869 506.205V479.349C611.869 478.191 610.931 477.252 609.773 477.252Z" fill="#1E2022"/>
<path opacity="0.2" d="M500.149 479.032H495.323V506.771H500.149V479.032Z" fill="black"/>
<path opacity="0.2" d="M511.114 478.899H507.603V506.638H511.114V478.899Z" fill="black"/>
<path opacity="0.2" d="M521.215 479.032H519.451V506.771H521.215V479.032Z" fill="black"/>
<path opacity="0.2" d="M534.826 478.899H533.944V506.638H534.826V478.899Z" fill="black"/>
<path opacity="0.2" d="M601.586 506.638H606.412V478.899H601.586V506.638Z" fill="black"/>
<path opacity="0.2" d="M590.62 506.771H594.131V479.032H590.62V506.771Z" fill="black"/>
<path opacity="0.2" d="M580.536 506.638H582.284V478.899H580.536V506.638Z" fill="black"/>
<path opacity="0.2" d="M566.908 506.771H567.79V479.032H566.908V506.771Z" fill="black"/>
<path opacity="0.2" d="M550.651 506.771H551.083V479.032H550.651V506.771Z" fill="black"/>
<path opacity="0.2" d="M608.608 481.978H493.376C492.986 481.973 492.614 481.815 492.34 481.538C492.065 481.261 491.912 480.887 491.912 480.497C491.916 480.11 492.072 479.74 492.345 479.466C492.619 479.192 492.989 479.037 493.376 479.032H608.608C608.996 479.032 609.369 479.187 609.643 479.461C609.918 479.736 610.072 480.108 610.072 480.497C610.074 480.69 610.038 480.883 609.966 481.062C609.893 481.242 609.786 481.405 609.649 481.543C609.513 481.681 609.351 481.79 609.172 481.865C608.993 481.939 608.802 481.978 608.608 481.978Z" fill="white"/>
<path d="M614.765 446.268H496.954C495.796 446.268 494.857 447.207 494.857 448.365V475.222C494.857 476.38 495.796 477.318 496.954 477.318H614.765C615.923 477.318 616.861 476.38 616.861 475.222V448.365C616.861 447.207 615.923 446.268 614.765 446.268Z" fill="#1E2022"/>
<path opacity="0.2" d="M505.141 448.065H500.315V475.804H505.141V448.065Z" fill="black"/>
<path opacity="0.2" d="M516.123 447.932H512.612V475.671H516.123V447.932Z" fill="black"/>
<path opacity="0.2" d="M526.223 448.065H524.459V475.804H526.223V448.065Z" fill="black"/>
<path opacity="0.2" d="M539.818 447.932H538.937V475.671H539.818V447.932Z" fill="black"/>
<path opacity="0.2" d="M606.595 475.654H611.42V447.916H606.595V475.654Z" fill="black"/>
<path opacity="0.2" d="M595.612 475.804H599.123V448.065H595.612V475.804Z" fill="black"/>
<path opacity="0.2" d="M585.528 475.654H587.276V447.916H585.528V475.654Z" fill="black"/>
<path opacity="0.2" d="M571.9 475.804H572.782V448.065H571.9V475.804Z" fill="black"/>
<path opacity="0.2" d="M555.66 475.804H556.092V448.065H555.66V475.804Z" fill="black"/>
<path opacity="0.2" d="M613.6 450.944H498.385C498.191 450.946 497.999 450.91 497.819 450.837C497.64 450.765 497.476 450.657 497.339 450.521C497.201 450.385 497.091 450.223 497.017 450.044C496.942 449.865 496.904 449.673 496.904 449.48C496.904 449.286 496.942 449.094 497.017 448.915C497.091 448.737 497.201 448.575 497.339 448.438C497.476 448.302 497.64 448.195 497.819 448.122C497.999 448.049 498.191 448.013 498.385 448.015H613.6C613.794 448.013 613.986 448.049 614.166 448.122C614.345 448.195 614.509 448.302 614.646 448.438C614.784 448.575 614.893 448.737 614.968 448.915C615.043 449.094 615.081 449.286 615.081 449.48C615.081 449.673 615.043 449.865 614.968 450.044C614.893 450.223 614.784 450.385 614.646 450.521C614.509 450.657 614.345 450.765 614.166 450.837C613.986 450.91 613.794 450.946 613.6 450.944Z" fill="white"/>
<path d="M606.445 415.301H488.634C487.476 415.301 486.537 416.24 486.537 417.398V444.255C486.537 445.413 487.476 446.351 488.634 446.351H606.445C607.603 446.351 608.542 445.413 608.542 444.255V417.398C608.542 416.24 607.603 415.301 606.445 415.301Z" fill="#1E2022"/>
<path opacity="0.2" d="M496.82 417.098H491.995V444.837H496.82V417.098Z" fill="black"/>
<path opacity="0.2" d="M507.786 416.948H504.275V444.687H507.786V416.948Z" fill="black"/>
<path opacity="0.2" d="M517.87 417.098H516.123V444.837H517.87V417.098Z" fill="black"/>
<path opacity="0.2" d="M531.498 416.948H530.616V444.687H531.498V416.948Z" fill="black"/>
<path opacity="0.2" d="M598.258 444.687H603.083V416.949H598.258V444.687Z" fill="black"/>
<path opacity="0.2" d="M587.276 444.821H590.787V417.082H587.276V444.821Z" fill="black"/>
<path opacity="0.2" d="M577.208 444.687H578.956V416.949H577.208V444.687Z" fill="black"/>
<path opacity="0.2" d="M563.58 444.821H564.462V417.082H563.58V444.821Z" fill="black"/>
<path opacity="0.2" d="M547.323 444.821H547.756V417.082H547.323V444.821Z" fill="black"/>
<path opacity="0.2" d="M605.28 420.027H490.048C489.661 420.023 489.291 419.867 489.017 419.593C488.744 419.32 488.588 418.95 488.584 418.563C488.584 418.174 488.738 417.802 489.013 417.527C489.287 417.253 489.66 417.098 490.048 417.098H605.28C605.473 417.096 605.664 417.132 605.843 417.205C606.022 417.278 606.184 417.386 606.32 417.522C606.457 417.659 606.565 417.821 606.637 418C606.71 418.178 606.747 418.37 606.744 418.563C606.744 418.951 606.59 419.323 606.315 419.598C606.041 419.873 605.668 420.027 605.28 420.027Z" fill="white"/>
<path d="M603.117 384.318H485.306C484.148 384.318 483.209 385.256 483.209 386.414V413.271C483.209 414.429 484.148 415.368 485.306 415.368H603.117C604.275 415.368 605.213 414.429 605.213 413.271V386.414C605.213 385.256 604.275 384.318 603.117 384.318Z" fill="#1E2022"/>
<path opacity="0.2" d="M493.493 386.115H488.667V413.854H493.493V386.115Z" fill="black"/>
<path opacity="0.2" d="M504.458 385.981H500.947V413.72H504.458V385.981Z" fill="black"/>
<path opacity="0.2" d="M514.559 386.115H512.795V413.854H514.559V386.115Z" fill="black"/>
<path opacity="0.2" d="M528.17 385.981H527.288V413.72H528.17V385.981Z" fill="black"/>
<path opacity="0.2" d="M594.93 413.704H599.756V385.965H594.93V413.704Z" fill="black"/>
<path opacity="0.2" d="M583.948 413.854H587.459V386.115H583.948V413.854Z" fill="black"/>
<path opacity="0.2" d="M573.864 413.704H575.611V385.965H573.864V413.704Z" fill="black"/>
<path opacity="0.2" d="M560.269 413.854H561.151V386.115H560.269V413.854Z" fill="black"/>
<path opacity="0.2" d="M543.995 413.854H544.427V386.115H543.995V413.854Z" fill="black"/>
<path opacity="0.2" d="M601.952 389.043H486.72C486.527 389.045 486.336 389.009 486.157 388.936C485.978 388.864 485.816 388.756 485.68 388.619C485.543 388.483 485.435 388.321 485.363 388.142C485.29 387.963 485.253 387.772 485.256 387.579C485.253 387.386 485.29 387.195 485.363 387.016C485.435 386.837 485.543 386.675 485.68 386.539C485.816 386.402 485.978 386.294 486.157 386.222C486.336 386.149 486.527 386.112 486.72 386.115H601.952C602.145 386.112 602.336 386.149 602.515 386.222C602.694 386.294 602.856 386.402 602.992 386.539C603.129 386.675 603.237 386.837 603.309 387.016C603.382 387.195 603.419 387.386 603.416 387.579C603.419 387.772 603.382 387.963 603.309 388.142C603.237 388.321 603.129 388.483 602.992 388.619C602.856 388.756 602.694 388.864 602.515 388.936C602.336 389.009 602.145 389.045 601.952 389.043Z" fill="white"/>
<path d="M459.93 663.087H342.118C340.96 663.087 340.022 664.026 340.022 665.184V692.041C340.022 693.199 340.96 694.138 342.118 694.138H459.93C461.088 694.138 462.026 693.199 462.026 692.041V665.184C462.026 664.026 461.088 663.087 459.93 663.087Z" fill="#1E2022"/>
<path opacity="0.2" d="M350.289 664.885H345.463V692.623H350.289V664.885Z" fill="black"/>
<path opacity="0.2" d="M361.271 664.751H357.76V692.49H361.271V664.751Z" fill="black"/>
<path opacity="0.2" d="M371.355 664.885H369.608V692.623H371.355V664.885Z" fill="black"/>
<path opacity="0.2" d="M384.966 664.751H384.084V692.49H384.966V664.751Z" fill="black"/>
<path opacity="0.2" d="M451.743 692.49H456.568V664.751H451.743V692.49Z" fill="black"/>
<path opacity="0.2" d="M440.76 692.623H444.271V664.885H440.76V692.623Z" fill="black"/>
<path opacity="0.2" d="M430.677 692.49H432.424V664.751H430.677V692.49Z" fill="black"/>
<path opacity="0.2" d="M417.065 692.623H417.947V664.885H417.065V692.623Z" fill="black"/>
<path opacity="0.2" d="M400.808 692.623H401.24V664.885H400.808V692.623Z" fill="black"/>
<path opacity="0.2" d="M458.765 667.813H343.533C343.34 667.815 343.148 667.779 342.97 667.706C342.791 667.633 342.629 667.526 342.492 667.389C342.356 667.253 342.248 667.09 342.175 666.912C342.103 666.733 342.066 666.542 342.068 666.349C342.068 665.96 342.223 665.588 342.497 665.313C342.772 665.039 343.144 664.885 343.533 664.885H458.765C459.152 664.889 459.522 665.045 459.795 665.318C460.069 665.592 460.225 665.962 460.229 666.349C460.229 666.737 460.075 667.11 459.8 667.384C459.526 667.659 459.153 667.813 458.765 667.813Z" fill="white"/>
<path d="M454.921 632.12H337.11C335.952 632.12 335.013 633.059 335.013 634.217V661.074C335.013 662.232 335.952 663.171 337.11 663.171H454.921C456.079 663.171 457.018 662.232 457.018 661.074V634.217C457.018 633.059 456.079 632.12 454.921 632.12Z" fill="#1E2022"/>
<path opacity="0.2" d="M345.297 633.917H340.471V661.656H345.297V633.917Z" fill="black"/>
<path opacity="0.2" d="M356.279 633.784H352.768V661.523H356.279V633.784Z" fill="black"/>
<path opacity="0.2" d="M366.363 633.917H364.616V661.656H366.363V633.917Z" fill="black"/>
<path opacity="0.2" d="M379.974 633.784H379.093V661.523H379.974V633.784Z" fill="black"/>
<path opacity="0.2" d="M446.751 661.507H451.576V633.768H446.751V661.507Z" fill="black"/>
<path opacity="0.2" d="M435.768 661.64H439.279V633.901H435.768V661.64Z" fill="black"/>
<path opacity="0.2" d="M425.684 661.507H427.432V633.768H425.684V661.507Z" fill="black"/>
<path opacity="0.2" d="M412.056 661.64H412.938V633.901H412.056V661.64Z" fill="black"/>
<path opacity="0.2" d="M395.799 661.64H396.232V633.901H395.799V661.64Z" fill="black"/>
<path opacity="0.2" d="M453.756 636.846H338.524C338.137 636.842 337.767 636.686 337.493 636.412C337.22 636.139 337.064 635.769 337.06 635.382C337.06 634.993 337.214 634.621 337.489 634.346C337.763 634.072 338.136 633.917 338.524 633.917H453.756C453.949 633.915 454.14 633.952 454.319 634.024C454.498 634.097 454.66 634.205 454.797 634.341C454.933 634.478 455.041 634.64 455.114 634.819C455.186 634.997 455.223 635.189 455.22 635.382C455.22 635.77 455.066 636.143 454.792 636.417C454.517 636.692 454.144 636.846 453.756 636.846Z" fill="white"/>
<path d="M459.93 601.153H342.118C340.96 601.153 340.022 602.092 340.022 603.25V630.107C340.022 631.265 340.96 632.204 342.118 632.204H459.93C461.088 632.204 462.026 631.265 462.026 630.107V603.25C462.026 602.092 461.088 601.153 459.93 601.153Z" fill="#1E2022"/>
<path opacity="0.2" d="M350.289 602.934H345.463V630.673H350.289V602.934Z" fill="black"/>
<path opacity="0.2" d="M361.271 602.801H357.76V630.54H361.271V602.801Z" fill="black"/>
<path opacity="0.2" d="M371.355 602.934H369.608V630.673H371.355V602.934Z" fill="black"/>
<path opacity="0.2" d="M384.966 602.801H384.084V630.54H384.966V602.801Z" fill="black"/>
<path opacity="0.2" d="M451.743 630.54H456.568V602.801H451.743V630.54Z" fill="black"/>
<path opacity="0.2" d="M440.76 630.673H444.271V602.934H440.76V630.673Z" fill="black"/>
<path opacity="0.2" d="M430.677 630.54H432.424V602.801H430.677V630.54Z" fill="black"/>
<path opacity="0.2" d="M417.065 630.673H417.947V602.934H417.065V630.673Z" fill="black"/>
<path opacity="0.2" d="M400.808 630.673H401.24V602.934H400.808V630.673Z" fill="black"/>
<path opacity="0.2" d="M458.765 605.862H343.533C343.34 605.865 343.148 605.828 342.97 605.756C342.791 605.683 342.629 605.575 342.492 605.439C342.356 605.302 342.248 605.14 342.175 604.961C342.103 604.783 342.066 604.591 342.068 604.398C342.068 604.01 342.223 603.637 342.497 603.363C342.772 603.088 343.144 602.934 343.533 602.934H458.765C459.152 602.938 459.522 603.094 459.795 603.368C460.069 603.641 460.225 604.011 460.229 604.398C460.229 604.787 460.075 605.159 459.8 605.434C459.526 605.708 459.153 605.862 458.765 605.862Z" fill="white"/>
<path d="M456.585 570.17H338.774C337.616 570.17 336.677 571.108 336.677 572.266V599.123C336.677 600.281 337.616 601.22 338.774 601.22H456.585C457.743 601.22 458.682 600.281 458.682 599.123V572.266C458.682 571.108 457.743 570.17 456.585 570.17Z" fill="#1E2022"/>
<path opacity="0.2" d="M346.961 571.967H342.135V599.706H346.961V571.967Z" fill="black"/>
<path opacity="0.2" d="M357.943 571.834H354.432V599.573H357.943V571.834Z" fill="black"/>
<path opacity="0.2" d="M368.027 571.967H366.28V599.706H368.027V571.967Z" fill="black"/>
<path opacity="0.2" d="M381.639 571.834H380.757V599.573H381.639V571.834Z" fill="black"/>
<path opacity="0.2" d="M448.415 599.556H453.24V571.817H448.415V599.556Z" fill="black"/>
<path opacity="0.2" d="M437.432 599.689H440.943V571.95H437.432V599.689Z" fill="black"/>
<path opacity="0.2" d="M427.332 599.556H429.096V571.817H427.332V599.556Z" fill="black"/>
<path opacity="0.2" d="M413.72 599.689H414.602V571.95H413.72V599.689Z" fill="black"/>
<path opacity="0.2" d="M397.48 599.689H397.912V571.95H397.48V599.689Z" fill="black"/>
<path opacity="0.2" d="M455.42 574.895H340.205C339.815 574.895 339.441 574.742 339.163 574.468C338.886 574.193 338.728 573.821 338.724 573.431C338.724 573.237 338.762 573.046 338.837 572.867C338.912 572.688 339.021 572.526 339.159 572.39C339.296 572.254 339.46 572.146 339.639 572.073C339.819 572.001 340.011 571.965 340.205 571.967H455.42C455.614 571.965 455.806 572.001 455.986 572.073C456.165 572.146 456.329 572.254 456.466 572.39C456.604 572.526 456.714 572.688 456.788 572.867C456.863 573.046 456.901 573.237 456.901 573.431C456.897 573.821 456.739 574.193 456.462 574.468C456.184 574.742 455.81 574.895 455.42 574.895Z" fill="white"/>
<path d="M456.585 539.203H338.774C337.616 539.203 336.677 540.141 336.677 541.299V568.156C336.677 569.314 337.616 570.253 338.774 570.253H456.585C457.743 570.253 458.682 569.314 458.682 568.156V541.299C458.682 540.141 457.743 539.203 456.585 539.203Z" fill="#1E2022"/>
<path opacity="0.2" d="M346.961 540.983H342.135V568.722H346.961V540.983Z" fill="black"/>
<path opacity="0.2" d="M357.943 540.85H354.432V568.589H357.943V540.85Z" fill="black"/>
<path opacity="0.2" d="M368.027 540.983H366.28V568.722H368.027V540.983Z" fill="black"/>
<path opacity="0.2" d="M381.639 540.85H380.757V568.589H381.639V540.85Z" fill="black"/>
<path opacity="0.2" d="M448.415 568.589H453.24V540.85H448.415V568.589Z" fill="black"/>
<path opacity="0.2" d="M437.432 568.722H440.943V540.983H437.432V568.722Z" fill="black"/>
<path opacity="0.2" d="M427.332 568.589H429.096V540.85H427.332V568.589Z" fill="black"/>
<path opacity="0.2" d="M413.72 568.722H414.602V540.983H413.72V568.722Z" fill="black"/>
<path opacity="0.2" d="M397.48 568.722H397.912V540.983H397.48V568.722Z" fill="black"/>
<path opacity="0.2" d="M455.42 543.912H340.205C340.011 543.914 339.819 543.878 339.639 543.805C339.46 543.733 339.296 543.625 339.159 543.489C339.021 543.353 338.912 543.191 338.837 543.012C338.762 542.833 338.724 542.641 338.724 542.447C338.728 542.058 338.886 541.685 339.163 541.411C339.441 541.137 339.815 540.983 340.205 540.983H455.42C455.81 540.983 456.184 541.137 456.462 541.411C456.739 541.685 456.897 542.058 456.901 542.447C456.901 542.641 456.863 542.833 456.788 543.012C456.714 543.191 456.604 543.353 456.466 543.489C456.329 543.625 456.165 543.733 455.986 543.805C455.806 543.878 455.614 543.914 455.42 543.912Z" fill="white"/>
<path d="M456.585 508.219H338.774C337.616 508.219 336.677 509.158 336.677 510.315V537.172C336.677 538.33 337.616 539.269 338.774 539.269H456.585C457.743 539.269 458.682 538.33 458.682 537.172V510.315C458.682 509.158 457.743 508.219 456.585 508.219Z" fill="#1E2022"/>
<path opacity="0.2" d="M346.961 510.016H342.135V537.755H346.961V510.016Z" fill="black"/>
<path opacity="0.2" d="M357.943 509.883H354.432V537.622H357.943V509.883Z" fill="black"/>
<path opacity="0.2" d="M368.027 510.016H366.28V537.755H368.027V510.016Z" fill="black"/>
<path opacity="0.2" d="M381.639 509.883H380.757V537.622H381.639V509.883Z" fill="black"/>
<path opacity="0.2" d="M448.415 537.605H453.24V509.866H448.415V537.605Z" fill="black"/>
<path opacity="0.2" d="M437.432 537.738H440.943V509.999H437.432V537.738Z" fill="black"/>
<path opacity="0.2" d="M427.332 537.605H429.096V509.866H427.332V537.605Z" fill="black"/>
<path opacity="0.2" d="M413.72 537.738H414.602V509.999H413.72V537.738Z" fill="black"/>
<path opacity="0.2" d="M397.48 537.738H397.912V509.999H397.48V537.738Z" fill="black"/>
<path opacity="0.2" d="M455.42 512.945H340.205C340.011 512.947 339.819 512.911 339.639 512.838C339.46 512.765 339.296 512.658 339.159 512.522C339.021 512.386 338.912 512.223 338.837 512.045C338.762 511.866 338.724 511.674 338.724 511.48C338.724 511.287 338.762 511.095 338.837 510.916C338.912 510.737 339.021 510.575 339.159 510.439C339.296 510.303 339.46 510.195 339.639 510.123C339.819 510.05 340.011 510.014 340.205 510.016H455.42C455.614 510.014 455.806 510.05 455.986 510.123C456.165 510.195 456.329 510.303 456.466 510.439C456.604 510.575 456.714 510.737 456.788 510.916C456.863 511.095 456.901 511.287 456.901 511.48C456.901 511.674 456.863 511.866 456.788 512.045C456.714 512.223 456.604 512.386 456.466 512.522C456.329 512.658 456.165 512.765 455.986 512.838C455.806 512.911 455.614 512.947 455.42 512.945Z" fill="white"/>
<path d="M458.033 445.935H340.221C339.063 445.935 338.125 446.874 338.125 448.032V474.889C338.125 476.047 339.063 476.986 340.221 476.986H458.033C459.191 476.986 460.129 476.047 460.129 474.889V448.032C460.129 446.874 459.191 445.935 458.033 445.935Z" fill="#1E2022"/>
<path opacity="0.2" d="M348.408 447.733H343.583V475.471H348.408V447.733Z" fill="black"/>
<path opacity="0.2" d="M359.391 447.599H355.88V475.338H359.391V447.599Z" fill="black"/>
<path opacity="0.2" d="M369.475 447.733H367.728V475.471H369.475V447.733Z" fill="black"/>
<path opacity="0.2" d="M383.086 447.599H382.204V475.338H383.086V447.599Z" fill="black"/>
<path opacity="0.2" d="M449.862 475.322H454.688V447.583H449.862V475.322Z" fill="black"/>
<path opacity="0.2" d="M438.88 475.471H442.391V447.733H438.88V475.471Z" fill="black"/>
<path opacity="0.2" d="M428.796 475.322H430.543V447.583H428.796V475.322Z" fill="black"/>
<path opacity="0.2" d="M415.168 475.471H416.05V447.733H415.168V475.471Z" fill="black"/>
<path opacity="0.2" d="M398.927 475.471H399.36V447.733H398.927V475.471Z" fill="black"/>
<path opacity="0.2" d="M456.868 450.661H341.653C341.459 450.663 341.267 450.627 341.087 450.555C340.908 450.482 340.744 450.374 340.606 450.238C340.469 450.102 340.359 449.94 340.285 449.761C340.21 449.582 340.172 449.391 340.172 449.197C340.176 448.807 340.334 448.435 340.611 448.16C340.889 447.886 341.263 447.733 341.653 447.733H456.868C457.258 447.733 457.632 447.886 457.909 448.16C458.187 448.435 458.345 448.807 458.349 449.197C458.349 449.391 458.311 449.582 458.236 449.761C458.161 449.94 458.052 450.102 457.914 450.238C457.776 450.374 457.613 450.482 457.433 450.555C457.254 450.627 457.062 450.663 456.868 450.661Z" fill="white"/>
<path d="M459.93 477.252H342.118C340.96 477.252 340.022 478.191 340.022 479.349V506.205C340.022 507.363 340.96 508.302 342.118 508.302H459.93C461.088 508.302 462.026 507.363 462.026 506.205V479.349C462.026 478.191 461.088 477.252 459.93 477.252Z" fill="#1E2022"/>
<path opacity="0.2" d="M350.289 479.032H345.463V506.771H350.289V479.032Z" fill="black"/>
<path opacity="0.2" d="M361.271 478.899H357.76V506.638H361.271V478.899Z" fill="black"/>
<path opacity="0.2" d="M371.355 479.032H369.608V506.771H371.355V479.032Z" fill="black"/>
<path opacity="0.2" d="M384.966 478.899H384.084V506.638H384.966V478.899Z" fill="black"/>
<path opacity="0.2" d="M451.743 506.638H456.568V478.899H451.743V506.638Z" fill="black"/>
<path opacity="0.2" d="M440.76 506.771H444.271V479.032H440.76V506.771Z" fill="black"/>
<path opacity="0.2" d="M430.677 506.638H432.424V478.899H430.677V506.638Z" fill="black"/>
<path opacity="0.2" d="M417.065 506.771H417.947V479.032H417.065V506.771Z" fill="black"/>
<path opacity="0.2" d="M400.808 506.771H401.24V479.032H400.808V506.771Z" fill="black"/>
<path opacity="0.2" d="M458.765 481.978H343.533C343.339 481.978 343.147 481.939 342.969 481.865C342.79 481.79 342.628 481.681 342.491 481.543C342.355 481.405 342.248 481.242 342.175 481.062C342.102 480.883 342.066 480.69 342.068 480.497C342.068 480.108 342.223 479.736 342.497 479.461C342.772 479.187 343.144 479.032 343.533 479.032H458.765C459.152 479.037 459.522 479.192 459.795 479.466C460.069 479.74 460.225 480.11 460.229 480.497C460.229 480.887 460.075 481.261 459.801 481.538C459.527 481.815 459.155 481.973 458.765 481.978Z" fill="white"/>
<path d="M416.133 426.5L412.406 433.788L408.612 441.193L401.973 438.764L405.301 432.257L409.494 424.07L416.133 426.5Z" fill="#FFC2BC"/>
<path opacity="0.2" d="M416.133 426.5L412.406 433.788L405.301 432.257L409.494 424.07L416.133 426.5Z" fill="black"/>
<path d="M561.134 385.283C560.934 385.284 560.741 385.212 560.59 385.08C560.44 384.948 560.343 384.766 560.319 384.567C560.086 382.903 538.221 219.831 511.83 148.279C511.777 148.175 511.746 148.06 511.74 147.943C511.734 147.826 511.753 147.709 511.795 147.6C511.837 147.491 511.902 147.392 511.985 147.309C512.068 147.227 512.168 147.163 512.278 147.122C512.387 147.081 512.504 147.063 512.621 147.07C512.738 147.077 512.852 147.109 512.956 147.163C513.06 147.217 513.151 147.293 513.224 147.385C513.296 147.477 513.349 147.583 513.377 147.697C539.852 219.382 561.75 382.72 561.966 384.384C561.995 384.604 561.936 384.827 561.802 385.004C561.668 385.182 561.47 385.3 561.251 385.333L561.134 385.283Z" fill="#263238"/>
<path d="M519.002 380.59L526.074 380.307L527.455 363.9L520.366 364.183L519.002 380.59Z" fill="#FFC2BC"/>
<path d="M526.739 376.563L519.018 376.314C518.877 376.314 518.74 376.36 518.626 376.443C518.513 376.527 518.428 376.645 518.386 376.78L516.722 383.003C516.682 383.153 516.676 383.311 516.705 383.463C516.735 383.616 516.798 383.76 516.891 383.885C516.984 384.01 517.104 384.112 517.241 384.184C517.379 384.256 517.532 384.296 517.687 384.301C520.483 384.301 524.526 384.301 528.037 384.401C532.131 384.534 534.693 384.401 539.552 384.484C542.448 384.567 543.379 381.672 542.165 381.372C536.673 379.991 533.079 380.241 528.42 377.162C527.925 376.813 527.344 376.606 526.739 376.563Z" fill="#263238"/>
<path opacity="0.2" d="M527.455 363.9L526.739 372.353L519.667 372.653L520.366 364.183L527.455 363.9Z" fill="black"/>
<path d="M516.123 321.152C517.92 324.596 518.053 360.705 518.053 369.874H530.284C531.864 360.372 539.685 309.354 528.62 302.066C516.439 294.029 485.555 296.791 485.555 296.791L483.326 292.282L478.866 283.296L453.307 292.864L447.733 294.927L445.436 295.793H445.237C445.237 295.793 445.237 296.042 445.237 296.475C445.32 297.473 445.553 299.487 445.969 301.999C446.451 305.013 447.129 307.993 447.999 310.918C450.362 318.623 454.555 325.894 461.843 323.465C462.159 323.365 462.476 323.232 462.792 323.099C463.391 322.833 464.04 322.583 464.705 322.333C470.547 320.451 476.59 319.262 482.71 318.789C498.152 317.325 514.759 318.49 516.123 321.152Z" fill="#263238"/>
<path d="M530.833 370.939L516.539 371.322L516.456 366.712L532.164 366.063L530.833 370.939Z" fill="#1E2022"/>
<path d="M409.843 437.632H401.224C401.084 437.633 400.949 437.681 400.84 437.768C400.731 437.856 400.655 437.978 400.625 438.115L399.16 444.388C399.125 444.54 399.125 444.698 399.16 444.85C399.194 445.003 399.263 445.145 399.361 445.267C399.459 445.388 399.583 445.486 399.724 445.553C399.865 445.62 400.019 445.654 400.175 445.653C402.954 445.653 404.984 445.436 408.495 445.436C410.642 445.436 417.115 445.669 420.143 445.669C423.172 445.669 423.471 442.724 422.307 442.458C416.882 441.276 412.789 439.629 411.058 438.065C410.895 437.915 410.703 437.8 410.494 437.726C410.286 437.652 410.064 437.62 409.843 437.632Z" fill="#263238"/>
<path d="M472.576 295.726L471.095 300.835C470.313 303.564 469.231 307.274 467.967 311.584L464.805 322.35C459.414 340.571 452.558 363.318 448.764 374.117C441.21 395.549 415.933 433.672 415.933 433.672L403.77 429.212C403.77 429.212 422.44 393.303 428.563 371.571C432.84 356.396 439.546 329.123 443.955 310.802L446.068 302.016C446.784 299.021 447.366 296.575 447.732 294.861C448.099 293.147 448.398 292.049 448.398 292.049L453.307 292.797L472.576 295.726Z" fill="#263238"/>
<path d="M417.248 434.47L402.938 429.212L404.552 424.952L419.811 429.578L417.248 434.47Z" fill="#1E2022"/>
<path opacity="0.2" d="M483.375 292.265L472.576 304.861L471.095 300.835L469.431 296.442L467.917 311.584L448.049 310.935L443.905 310.802L446.019 302.016C445.603 299.503 445.37 297.49 445.286 296.492L445.42 295.743L447.716 294.877C448.148 293.08 448.381 292.065 448.381 292.065L453.29 292.814L478.899 283.296L483.375 292.265Z" fill="black"/>
<path opacity="0.2" d="M482.776 318.806C475.946 319.264 469.219 320.716 462.808 323.116C462.492 323.249 462.176 323.382 461.86 323.482L463.308 316.36C463.308 316.36 475.771 315.777 482.776 318.806Z" fill="black"/>
<path d="M389.842 299.104L385.499 304.861L381.822 297.856C381.822 297.856 385.998 292.947 388.478 295.21L389.842 299.104Z" fill="#FFC2BC"/>
<path d="M378.86 307.491L377.778 300.319L381.822 297.773L385.499 304.861L378.86 307.491Z" fill="#FFC2BC"/>
<path d="M391.023 298.572L389.809 299.187L388.011 294.628L389.942 293.696L391.023 298.572Z" fill="white"/>
<path d="M439.462 257.022C438.83 258.131 438.181 259.196 437.516 260.216C435.84 262.945 434.088 265.63 432.257 268.27L430.743 270.45C429.212 272.646 427.598 274.793 425.868 276.94C425.002 278.005 424.12 279.086 423.139 280.151C422.154 281.266 421.104 282.322 419.994 283.313C415.737 286.936 411.054 290.026 406.049 292.515C401.225 295.008 396.219 297.133 391.073 298.871L388.91 294.012C391.073 292.698 393.32 291.35 395.466 289.952C397.613 288.554 399.793 287.173 401.873 285.709C403.953 284.245 405.999 282.764 407.93 281.216C409.828 279.73 411.628 278.124 413.321 276.407C416.516 272.694 419.394 268.72 421.924 264.526C424.703 260.216 428.214 252.662 430.959 248.352L439.462 257.022Z" fill="#263238"/>
<path opacity="0.2" d="M437.516 260.216C435.84 262.945 434.088 265.63 432.257 268.27C432.443 264.77 433.415 261.358 435.103 258.286C436.105 258.633 436.957 259.315 437.516 260.216Z" fill="black"/>
<path d="M532.929 239.1L528.104 243.593L528.786 247.753C530.55 250.083 534.61 247.204 535.558 246.472C535.71 246.362 535.871 246.267 536.041 246.189L538.604 245.157C539.057 244.969 539.433 244.633 539.672 244.204C539.91 243.775 539.997 243.279 539.918 242.794L539.419 239.733C539.373 239.445 539.27 239.17 539.115 238.924C538.959 238.678 538.756 238.466 538.516 238.301C538.276 238.136 538.006 238.021 537.72 237.964C537.435 237.907 537.141 237.909 536.856 237.969L533.978 238.551C533.582 238.628 533.218 238.819 532.929 239.1Z" fill="#FFC2BC"/>
<path d="M526.989 243.626L528.32 243.293L529.085 248.119L526.989 248.618V243.626Z" fill="white"/>
<path d="M528.104 248.652C522.818 249.77 517.456 250.494 512.063 250.815C506.506 251.246 500.917 250.989 495.423 250.049C493.96 249.77 492.515 249.403 491.096 248.951C489.699 248.518 488.401 248.052 487.103 247.57C484.524 246.621 482.111 245.606 479.598 244.492L476.653 243.16C474.423 242.129 472.227 241.064 469.997 239.949C468.333 239.15 466.785 238.285 465.188 237.42L469.464 227.253C474.04 229.549 479.448 232.66 484.041 234.94C488.352 237.257 492.856 239.195 497.503 240.731C499.833 241.347 502.201 241.809 504.591 242.112C507.054 242.461 509.584 242.678 512.096 242.877C514.609 243.077 517.205 243.194 519.767 243.227C522.33 243.26 524.959 243.343 527.488 243.377L528.104 248.652Z" fill="#263238"/>
<path opacity="0.2" d="M476.603 243.16C474.373 242.129 472.177 241.064 469.947 239.949L469.082 235.223C472.411 236.946 475.061 239.743 476.603 243.16Z" fill="black"/>
<path d="M432.44 247.437C435.191 254.202 437.383 261.181 438.997 268.303C440.195 273.295 444.438 278.287 445.17 282.863C445.869 287.911 446.869 292.912 448.165 297.839C453.24 295.11 468.599 291.732 478.899 286.191C479.332 244.724 468.2 228.55 468.2 228.55C465.373 229.27 462.595 230.164 459.88 231.229L458.083 231.978C453.126 234.317 448.294 236.911 443.606 239.749C442.691 240.298 441.775 240.864 440.894 241.413C436.367 244.375 432.44 247.437 432.44 247.437Z" fill="#1E2022"/>
<path opacity="0.7" d="M432.44 247.437C435.191 254.202 437.383 261.181 438.997 268.303C440.195 273.295 444.438 278.287 445.17 282.863C445.869 287.911 446.869 292.912 448.165 297.839C453.24 295.11 468.599 291.732 478.899 286.191C479.332 244.724 468.2 228.55 468.2 228.55C465.373 229.27 462.595 230.164 459.88 231.229L458.083 231.978C453.126 234.317 448.294 236.911 443.606 239.749C442.691 240.298 441.775 240.864 440.894 241.413C436.367 244.375 432.44 247.437 432.44 247.437Z" fill="white"/>
<path d="M459.713 246.655L460.346 242.811L457.7 242.645L456.086 244.425L459.713 246.655Z" fill="#1E2022"/>
<path d="M457.7 242.645C452.808 245.374 447.965 242.195 444.837 240.015L444.504 239.782C445.885 237.869 446.019 234.79 445.569 231.695C445.038 228.275 444.123 224.926 442.84 221.711L454.039 228.134C454.039 228.9 453.906 229.582 453.873 230.181C453.723 231.629 453.706 232.611 454.505 233.243C455.747 233.936 457.163 234.254 458.582 234.158C459.863 235.639 461.061 240.764 457.7 242.645Z" fill="#FFC2BC"/>
<path d="M440.96 241.463C440.96 241.463 455.054 256.173 465.371 264.177C465.371 264.177 464.606 238.168 459.946 231.263L469.531 227.253C469.531 227.253 478.75 247.62 480.064 281.632L484.224 290.202L472.576 302.049L468.832 293.263L466.319 307.84L442.291 309.97L445.237 293.33L431.043 248.402L440.96 241.463Z" fill="#263238"/>
<path d="M458.449 245.873C458.449 245.873 461.777 257.221 461.544 263.278L465.837 265.508L466.602 262.18C466.602 262.18 462.825 247.553 459.347 244.991L458.449 245.873Z" fill="#1E2022"/>
<path d="M441.459 240.248C441.459 240.248 459.064 259.567 465.288 264.177C465.288 264.177 463.474 238.019 459.43 231.446C459.43 231.446 462.209 229.532 468.133 235.306L465.171 240.797L470.429 244.425C470.429 244.425 468.632 264.027 465.171 273.329C465.423 271.364 465.534 269.385 465.504 267.405L444.854 255.957L445.769 249.633L437.965 249.301C437.965 249.301 438.83 241.829 441.459 240.248Z" fill="#263238"/>
<path opacity="0.2" d="M441.459 240.248C441.459 240.248 459.064 259.567 465.288 264.177C465.288 264.177 463.474 238.019 459.43 231.446C459.43 231.446 462.209 229.532 468.133 235.306L465.171 240.797L470.429 244.425C470.429 244.425 468.632 264.027 465.171 273.329C465.423 271.364 465.534 269.385 465.504 267.405L444.854 255.957L445.769 249.633L437.965 249.301C437.965 249.301 438.83 241.829 441.459 240.248Z" fill="white"/>
<path d="M513.144 149.461C513.144 149.461 503.16 148.329 497.586 150.958C492.012 153.587 486.404 162.157 477.352 162.972C468.3 163.788 466.486 160.842 466.486 160.842C466.486 160.842 474.456 174.986 489.782 174.837C505.107 174.687 513.078 172.157 522.113 177.848C522.147 177.848 515.191 153.87 513.144 149.461Z" fill="#1E2022"/>
<path opacity="0.2" d="M454.505 233.21C453.573 236.105 451.26 240.198 445.786 240.099C445.47 240.125 445.153 240.125 444.837 240.099L444.504 239.866C445.886 237.952 446.019 234.874 445.569 231.779C448.03 230.186 451.02 229.63 453.889 230.231C453.723 231.596 453.706 232.577 454.505 233.21Z" fill="black"/>
<path d="M457.7 242.645C457.787 244.655 457.358 246.655 456.452 248.452C453.373 248.019 444.171 243.46 443.706 239.649C443.943 238.735 444.44 237.908 445.137 237.27C448.645 240.355 453.046 242.238 457.7 242.645Z" fill="white"/>
<path d="M457.7 242.645C459.413 243.089 461.008 243.901 462.376 245.024C463.241 241.446 459.664 232.844 458.748 232.378C457.256 232.233 455.752 232.486 454.389 233.11C454.389 233.11 459.414 237.802 457.7 242.645Z" fill="white"/>
<path d="M433.056 218.117C432.873 220.963 434.72 226.287 437.915 223.625C441.11 220.963 433.372 213.225 433.056 218.117Z" fill="#263238"/>
<path d="M452.974 217.036C455.037 223.692 456.585 227.552 454.538 232.128C451.443 239.017 442.191 239 438.148 233.027C434.52 227.668 431.741 217.618 437.216 212.643C438.426 211.545 439.895 210.772 441.484 210.396C443.074 210.019 444.733 210.052 446.307 210.491C447.881 210.93 449.318 211.76 450.484 212.904C451.649 214.049 452.506 215.47 452.974 217.036Z" fill="#FFC2BC"/>
<path d="M454.039 208.566C453.373 204.206 448.198 204.822 445.17 207.118V215.721C446.338 215.166 447.452 214.503 448.498 213.741C448.498 213.741 449.679 220.181 453.623 222.061C458.648 217.185 459.064 209.664 454.039 208.566Z" fill="#263238"/>
<path d="M457.6 221.545C457.695 223.294 457.097 225.01 455.936 226.321C454.355 227.985 452.325 226.903 451.743 224.757C451.16 222.61 451.393 219.648 453.407 218.733C453.868 218.541 454.37 218.465 454.868 218.514C455.365 218.563 455.843 218.735 456.258 219.013C456.674 219.292 457.014 219.669 457.248 220.11C457.482 220.552 457.603 221.045 457.6 221.545Z" fill="#FFC2BC"/>
<path d="M443.689 222.527C443.889 223.059 443.689 223.592 443.406 223.725C443.123 223.858 442.607 223.525 442.408 222.993C442.208 222.46 442.408 221.928 442.691 221.795C442.973 221.661 443.473 221.994 443.689 222.527Z" fill="#263238"/>
<path d="M437.632 224.74C437.848 225.272 437.715 225.805 437.366 225.938C437.016 226.071 436.567 225.738 436.367 225.206C436.168 224.673 436.284 224.141 436.634 224.008C436.983 223.875 437.416 224.207 437.632 224.74Z" fill="#263238"/>
<path d="M439.645 224.307C439.58 226.123 439.26 227.921 438.697 229.649C439.159 229.764 439.639 229.779 440.107 229.693C440.575 229.607 441.019 229.422 441.409 229.149L439.645 224.307Z" fill="#ED893E"/>
<path d="M445.053 230.148L444.371 230.447C444.329 230.463 444.283 230.461 444.242 230.442C444.202 230.424 444.17 230.389 444.155 230.348C444.139 230.306 444.141 230.259 444.16 230.219C444.179 230.178 444.213 230.147 444.255 230.131C444.924 229.903 445.531 229.521 446.025 229.015C446.519 228.509 446.887 227.894 447.1 227.219C447.104 227.197 447.113 227.176 447.125 227.157C447.137 227.139 447.153 227.123 447.172 227.11C447.19 227.098 447.211 227.089 447.233 227.085C447.255 227.081 447.278 227.081 447.3 227.086C447.322 227.09 447.342 227.098 447.361 227.111C447.379 227.123 447.394 227.139 447.405 227.158C447.416 227.178 447.423 227.199 447.425 227.221C447.427 227.243 447.424 227.265 447.416 227.286C447.239 227.899 446.937 228.469 446.531 228.961C446.125 229.454 445.622 229.857 445.053 230.148Z" fill="#263238"/>
<path d="M444.821 219.898C444.767 219.927 444.707 219.942 444.646 219.942C444.585 219.942 444.525 219.927 444.471 219.898C444.122 219.66 443.721 219.508 443.301 219.456C442.881 219.404 442.455 219.453 442.058 219.598C441.977 219.633 441.884 219.635 441.802 219.602C441.719 219.569 441.653 219.505 441.617 219.423C441.582 219.342 441.581 219.249 441.613 219.167C441.646 219.084 441.71 219.018 441.792 218.982C442.291 218.792 442.827 218.725 443.357 218.786C443.887 218.847 444.395 219.034 444.837 219.332C444.91 219.383 444.96 219.459 444.979 219.545C444.997 219.632 444.983 219.722 444.937 219.798C444.905 219.839 444.866 219.873 444.821 219.898Z" fill="#263238"/>
<path d="M434.304 223.625C434.24 223.649 434.169 223.649 434.104 223.625C434.061 223.621 434.018 223.608 433.979 223.587C433.94 223.567 433.906 223.538 433.878 223.504C433.85 223.47 433.829 223.431 433.817 223.389C433.804 223.347 433.8 223.303 433.805 223.259C433.852 222.724 434.028 222.209 434.318 221.757C434.608 221.305 435.003 220.929 435.469 220.663C435.508 220.643 435.551 220.631 435.595 220.628C435.639 220.625 435.683 220.63 435.725 220.644C435.766 220.658 435.805 220.68 435.838 220.709C435.871 220.738 435.899 220.773 435.918 220.813C435.96 220.89 435.969 220.981 435.944 221.065C435.919 221.149 435.862 221.22 435.785 221.262C435.425 221.478 435.122 221.779 434.905 222.139C434.687 222.499 434.561 222.906 434.537 223.326C434.533 223.393 434.509 223.458 434.467 223.512C434.426 223.565 434.369 223.605 434.304 223.625Z" fill="#263238"/>
<path d="M448.348 213.791C448.348 213.791 444.138 218.134 440.028 217.917C441.137 217.414 442.145 216.715 443.007 215.854C443.007 215.854 434.97 219.332 431.009 217.518C427.049 215.704 427.498 213.741 427.498 213.741C427.498 213.741 427.948 214.889 431.791 214.773C431.791 214.773 428.463 212.593 429.811 209.514C430.004 209.883 430.286 210.196 430.632 210.426C430.978 210.656 431.377 210.795 431.791 210.829C433.095 208.821 434.846 207.142 436.908 205.923C438.969 204.705 441.284 203.981 443.672 203.807C452.309 202.825 454.056 206.236 454.438 208.799C454.821 211.361 448.348 213.791 448.348 213.791Z" fill="#263238"/>
<path d="M310.07 663.087H192.259C191.101 663.087 190.162 664.026 190.162 665.184V692.041C190.162 693.199 191.101 694.138 192.259 694.138H310.07C311.228 694.138 312.166 693.199 312.166 692.041V665.184C312.166 664.026 311.228 663.087 310.07 663.087Z" fill="#1E2022"/>
<path opacity="0.2" d="M200.445 664.885H195.62V692.623H200.445V664.885Z" fill="black"/>
<path opacity="0.2" d="M211.411 664.751H207.9V692.49H211.411V664.751Z" fill="black"/>
<path opacity="0.2" d="M221.495 664.885H219.748V692.623H221.495V664.885Z" fill="black"/>
<path opacity="0.2" d="M235.107 664.751H234.225V692.49H235.107V664.751Z" fill="black"/>
<path opacity="0.2" d="M301.883 692.49H306.708V664.751H301.883V692.49Z" fill="black"/>
<path opacity="0.2" d="M290.917 692.623H294.428V664.885H290.917V692.623Z" fill="black"/>
<path opacity="0.2" d="M280.817 692.49H282.564V664.751H280.817V692.49Z" fill="black"/>
<path opacity="0.2" d="M267.205 692.623H268.087V664.885H267.205V692.623Z" fill="black"/>
<path opacity="0.2" d="M250.948 692.623H251.381V664.885H250.948V692.623Z" fill="black"/>
<path opacity="0.2" d="M308.905 667.813H193.673C193.48 667.815 193.289 667.779 193.11 667.706C192.931 667.633 192.769 667.526 192.633 667.389C192.496 667.253 192.388 667.09 192.316 666.912C192.243 666.733 192.206 666.542 192.209 666.349C192.209 665.96 192.363 665.588 192.637 665.313C192.912 665.039 193.285 664.885 193.673 664.885H308.905C309.293 664.885 309.666 665.039 309.94 665.313C310.215 665.588 310.369 665.96 310.369 666.349C310.371 666.542 310.335 666.733 310.262 666.912C310.19 667.09 310.082 667.253 309.945 667.389C309.809 667.526 309.647 667.633 309.468 667.706C309.289 667.779 309.098 667.815 308.905 667.813Z" fill="white"/>
<path d="M311.734 632.12H193.923C192.765 632.12 191.826 633.059 191.826 634.217V661.074C191.826 662.232 192.765 663.171 193.923 663.171H311.734C312.892 663.171 313.83 662.232 313.83 661.074V634.217C313.83 633.059 312.892 632.12 311.734 632.12Z" fill="#1E2022"/>
<path opacity="0.2" d="M202.11 633.917H197.284V661.656H202.11V633.917Z" fill="black"/>
<path opacity="0.2" d="M213.075 633.784H209.564V661.523H213.075V633.784Z" fill="black"/>
<path opacity="0.2" d="M223.159 633.917H221.412V661.656H223.159V633.917Z" fill="black"/>
<path opacity="0.2" d="M236.787 633.784H235.905V661.523H236.787V633.784Z" fill="black"/>
<path opacity="0.2" d="M303.547 661.507H308.373V633.768H303.547V661.507Z" fill="black"/>
<path opacity="0.2" d="M292.564 661.64H296.075V633.901H292.564V661.64Z" fill="black"/>
<path opacity="0.2" d="M282.481 661.507H284.228V633.768H282.481V661.507Z" fill="black"/>
<path opacity="0.2" d="M268.869 661.64H269.751V633.901H268.869V661.64Z" fill="black"/>
<path opacity="0.2" d="M252.612 661.64H253.044V633.901H252.612V661.64Z" fill="black"/>
<path opacity="0.2" d="M310.569 636.846H195.337C194.949 636.846 194.576 636.692 194.302 636.417C194.027 636.143 193.873 635.77 193.873 635.382C193.87 635.189 193.907 634.997 193.98 634.819C194.052 634.64 194.16 634.478 194.297 634.341C194.433 634.205 194.595 634.097 194.774 634.024C194.953 633.952 195.144 633.915 195.337 633.917H310.569C310.762 633.915 310.953 633.952 311.132 634.024C311.311 634.097 311.473 634.205 311.609 634.341C311.746 634.478 311.854 634.64 311.926 634.819C311.999 634.997 312.036 635.189 312.033 635.382C312.033 635.77 311.879 636.143 311.604 636.417C311.33 636.692 310.957 636.846 310.569 636.846Z" fill="white"/>
<path d="M305.078 601.153H187.267C186.109 601.153 185.17 602.092 185.17 603.25V630.107C185.17 631.265 186.109 632.204 187.267 632.204H305.078C306.236 632.204 307.174 631.265 307.174 630.107V603.25C307.174 602.092 306.236 601.153 305.078 601.153Z" fill="#1E2022"/>
<path opacity="0.2" d="M195.437 602.934H190.611V630.673H195.437V602.934Z" fill="black"/>
<path opacity="0.2" d="M206.419 602.801H202.908V630.54H206.419V602.801Z" fill="black"/>
<path opacity="0.2" d="M216.503 602.934H214.756V630.673H216.503V602.934Z" fill="black"/>
<path opacity="0.2" d="M230.115 602.801H229.233V630.54H230.115V602.801Z" fill="black"/>
<path opacity="0.2" d="M296.874 630.54H301.7V602.801H296.874V630.54Z" fill="black"/>
<path opacity="0.2" d="M285.925 630.673H289.436V602.934H285.925V630.673Z" fill="black"/>
<path opacity="0.2" d="M275.825 630.54H277.572V602.801H275.825V630.54Z" fill="black"/>
<path opacity="0.2" d="M262.213 630.673H263.095V602.934H262.213V630.673Z" fill="black"/>
<path opacity="0.2" d="M245.956 630.673H246.388V602.934H245.956V630.673Z" fill="black"/>
<path opacity="0.2" d="M303.913 605.862H188.681C188.488 605.865 188.297 605.828 188.118 605.756C187.939 605.683 187.777 605.575 187.641 605.439C187.504 605.302 187.396 605.14 187.324 604.961C187.251 604.783 187.214 604.591 187.217 604.398C187.217 604.01 187.371 603.637 187.646 603.363C187.92 603.088 188.293 602.934 188.681 602.934H303.913C304.3 602.938 304.67 603.094 304.944 603.368C305.217 603.641 305.373 604.011 305.377 604.398C305.377 604.787 305.223 605.159 304.948 605.434C304.674 605.708 304.301 605.862 303.913 605.862Z" fill="white"/>
<path d="M238.717 580.62L235.373 588.856L232.844 595.08L226.487 592.817L228.767 587.226L232.361 578.34L238.717 580.62Z" fill="#E4897B"/>
<path d="M374.567 536.524L369.159 540.534L367.178 536.141L362.586 525.99L367.994 521.964L372.337 531.581L374.567 536.524Z" fill="#E4897B"/>
<path opacity="0.2" d="M232.361 578.34L238.718 580.62L235.373 588.856L228.767 587.226L232.361 578.34Z" fill="black"/>
<path opacity="0.2" d="M372.337 531.581L367.178 536.141L362.586 525.99L367.994 521.964L372.337 531.581Z" fill="black"/>
<path d="M286.424 352.568C286.607 353.084 287.023 353.4 287.356 353.284C287.689 353.167 287.822 352.652 287.639 352.136C287.456 351.62 287.04 351.304 286.707 351.42C286.375 351.537 286.208 352.053 286.424 352.568Z" fill="#263238"/>
<path d="M286.973 353.417C288.137 354.765 289.481 355.947 290.967 356.928C290.709 357.305 290.371 357.62 289.977 357.85C289.583 358.081 289.142 358.22 288.687 358.259L286.973 353.417Z" fill="#DE5753"/>
<path d="M283.546 350.389C283.47 350.411 283.389 350.411 283.313 350.389C283.258 350.33 283.227 350.253 283.227 350.172C283.227 350.092 283.258 350.014 283.313 349.956C283.591 349.534 283.966 349.185 284.405 348.936C284.845 348.687 285.337 348.546 285.842 348.525C285.927 348.529 286.008 348.566 286.067 348.628C286.125 348.69 286.158 348.772 286.158 348.858C286.158 348.901 286.149 348.943 286.133 348.983C286.116 349.022 286.091 349.058 286.06 349.087C286.029 349.117 285.992 349.14 285.951 349.155C285.911 349.17 285.868 349.176 285.825 349.174C285.425 349.191 285.034 349.304 284.687 349.504C284.339 349.704 284.045 349.984 283.829 350.322C283.788 350.352 283.743 350.373 283.694 350.385C283.645 350.396 283.595 350.397 283.546 350.389Z" fill="#263238"/>
<path d="M274.111 360.955C274.194 365.947 273.562 375.032 269.585 377.678C269.585 377.678 270.034 382.836 279.053 384.434C289.037 386.214 284.677 380.357 284.677 380.357C279.502 378.111 280.351 374.117 281.965 370.506L274.111 360.955Z" fill="#E4897B"/>
<path d="M268.952 357.51C271.548 363.667 272.763 367.494 277.089 369.525C283.579 372.686 290.401 367.062 289.619 360.256C288.987 354.116 284.827 345.08 277.771 344.748C276.219 344.668 274.672 344.987 273.278 345.674C271.883 346.36 270.688 347.392 269.804 348.671C268.92 349.949 268.378 351.433 268.229 352.98C268.08 354.527 268.329 356.087 268.952 357.51Z" fill="#E4897B"/>
<path d="M273.345 367.528C276.274 368.709 285.476 362.12 282.331 354.532C282.331 354.532 285.476 349.457 284.344 344.548C283.213 339.639 279.519 338.158 276.024 339.756C272.929 341.153 273.262 342.901 273.262 342.901C273.262 342.901 258.286 346.828 262.379 352.568C257.105 360.156 269.668 366.08 273.345 367.528Z" fill="#263238"/>
<path d="M279.868 356.262C280.527 357.788 281.667 359.056 283.113 359.873C285.043 360.922 286.158 359.457 285.759 357.51C285.359 355.564 283.978 353.101 281.981 352.851C279.985 352.602 279.103 354.432 279.868 356.262Z" fill="#E4897B"/>
<path d="M267.189 377.728C266.49 376.33 265.724 374.733 267.421 374.3C269.119 373.868 281.166 373.169 284.611 374.3C283.479 376.181 285.226 378.577 285.226 378.577L267.189 377.728Z" fill="#1E2022"/>
<path opacity="0.5" d="M267.189 377.728C266.49 376.33 265.724 374.733 267.421 374.3C269.119 373.868 281.166 373.169 284.611 374.3C283.479 376.181 285.226 378.577 285.226 378.577L267.189 377.728Z" fill="#FAFAFA"/>
<path d="M233.276 592.384H225.921C225.788 592.385 225.659 592.432 225.556 592.517C225.453 592.602 225.382 592.719 225.355 592.85L224.024 598.84C223.988 598.985 223.986 599.136 224.018 599.281C224.05 599.427 224.116 599.563 224.209 599.679C224.303 599.795 224.422 599.888 224.557 599.95C224.692 600.013 224.84 600.043 224.989 600.038C227.635 600.038 231.479 599.839 234.807 599.839C238.717 599.839 242.079 600.055 246.655 600.055C249.434 600.055 250.199 597.26 249.034 597.01C243.759 595.845 239.466 595.729 234.907 592.917C234.422 592.594 233.858 592.41 233.276 592.384Z" fill="#263238"/>
<path d="M280.867 437.216C280.867 437.216 278.77 451.343 276.224 467.584C275.109 474.54 273.911 481.878 272.73 488.667C271.415 496.271 270.134 503.16 269.069 508.019C264.426 529.152 239.783 587.392 239.783 587.392L227.719 584.78C227.719 584.78 244.958 539.469 248.801 509.9C251.78 487.219 257.621 437.199 257.621 437.199L280.867 437.216Z" fill="#263238"/>
<path d="M242.661 583.349L240.415 587.708L226.836 584.763L227.968 580.736L242.661 583.349Z" fill="#1E2022"/>
<path opacity="0.3" d="M242.661 583.349L240.415 587.708L226.836 584.763L227.968 580.736L242.661 583.349Z" fill="black"/>
<path opacity="0.2" d="M276.224 467.584C275.109 474.54 273.911 481.878 272.73 488.667C269.402 475.238 270.483 467.201 270.483 467.201L276.224 467.584Z" fill="black"/>
<path d="M261.148 390.058C257.903 393.12 254.492 396.365 251.397 399.61C248.27 402.786 245.304 406.119 242.511 409.594C241.32 411.316 240.247 413.117 239.3 414.985C238.268 416.998 237.22 419.045 236.221 421.142L230.115 433.755L225.322 432.091C226.354 427.415 227.668 422.856 229.1 418.28C229.848 416 230.647 413.72 231.529 411.441C232.459 408.989 233.6 406.623 234.94 404.369C237.644 400.243 240.683 396.348 244.026 392.721C247.258 389.092 250.703 385.658 254.342 382.437L261.148 390.058Z" fill="#DC897C"/>
<path d="M224.923 444.405L227.369 440.061L219.914 437.798C219.494 438.803 219.289 439.885 219.312 440.974C219.334 442.063 219.585 443.135 220.047 444.122L224.923 444.405Z" fill="#E4897B"/>
<path d="M230.098 433.688L225.322 432.141L219.914 437.798L227.369 440.061L230.098 433.688Z" fill="#E4897B"/>
<path d="M374.483 535.608L368.41 540.118C368.304 540.199 368.228 540.314 368.195 540.444C368.162 540.574 368.173 540.711 368.227 540.833L370.723 546.441C370.782 546.578 370.872 546.7 370.986 546.797C371.1 546.893 371.235 546.962 371.38 546.997C371.525 547.033 371.677 547.034 371.823 547.001C371.968 546.968 372.104 546.902 372.22 546.807C374.317 545.143 375.265 544.311 377.928 542.331C379.592 541.116 383.386 538.437 385.665 536.757C387.945 535.076 386.564 532.596 385.482 533.096C380.64 535.276 377.845 535.508 375.615 535.292C375.212 535.256 374.809 535.369 374.483 535.608Z" fill="#263238"/>
<path d="M258.253 378.36C251.78 377.961 242.229 391.955 242.229 391.955L251.647 404.818C255.78 402.407 259.22 398.967 261.631 394.834C266.107 387.279 264.859 378.776 258.253 378.36Z" fill="#1E2022"/>
<path opacity="0.6" d="M258.253 378.36C251.78 377.961 242.229 391.955 242.229 391.955L251.647 404.818C255.78 402.407 259.22 398.967 261.631 394.834C266.107 387.279 264.859 378.776 258.253 378.36Z" fill="#FAFAFA"/>
<path opacity="0.2" d="M260.083 391.273C255.84 393.553 253.011 399.16 251.231 404.236L251.647 404.818C255.78 402.407 259.22 398.967 261.631 394.834C261.897 394.401 262.147 393.935 262.38 393.486L260.083 391.273Z" fill="black"/>
<path d="M296.558 377.329C296.558 377.329 300.435 387.08 293.646 437.233H257.621C257.371 431.692 260.849 404.701 255.507 378.643C259.491 377.87 263.521 377.359 267.571 377.112C272.181 376.896 287.539 373.784 291.599 374.167C296.941 374.633 296.558 377.329 296.558 377.329Z" fill="#1E2022"/>
<path opacity="0.6" d="M297.407 399.443C296.974 408.312 295.893 420.526 293.646 437.216H257.621C257.371 431.675 260.849 404.685 255.507 378.627C259.491 377.854 263.521 377.342 267.571 377.096C272.181 376.879 287.539 373.768 291.599 374.15C296.941 374.633 296.591 377.329 296.591 377.329C296.591 377.329 297.407 379.375 297.623 386.414C297.706 389.626 297.69 393.869 297.407 399.443Z" fill="#FAFAFA"/>
<path d="M292.182 434.304L299.304 450.944C299.304 450.944 333.798 455.27 343.583 467.135C353.367 478.999 371.871 527.139 371.871 527.139L362.652 534.976C362.652 534.976 336.195 486.321 328.79 480.447C321.385 474.573 279.236 474.589 269.818 471.078C260.399 467.567 257.687 437.166 257.687 437.166L292.182 434.304Z" fill="#263238"/>
<path d="M360.689 534.061L371.804 525.541L373.235 528.287L362.586 536.69L360.689 534.061Z" fill="#1E2022"/>
<path opacity="0.3" d="M360.689 534.061L371.804 525.541L373.235 528.287L362.586 536.69L360.689 534.061Z" fill="black"/>
<path d="M284.544 346.944C284.544 346.944 284.128 337.06 278.903 336.727C273.678 336.394 269.568 341.12 269.568 341.12C269.062 340.489 268.421 339.98 267.693 339.628C266.965 339.277 266.167 339.093 265.358 339.09C262.396 338.924 257.238 343.965 257.238 343.965C257.238 343.965 263.678 340.005 266.39 341.819C266.39 341.819 259.085 343.849 257.238 348.475C256.446 350.825 255.138 352.968 253.411 354.748H257.238L254.725 359.025C254.725 359.025 260.017 364.133 264.01 363.285L262.729 365.714C262.729 365.714 270.567 368.576 273.761 367.694C276.956 366.812 273.928 350.904 273.928 350.904L284.544 346.944Z" fill="#263238"/>
<path opacity="0.2" d="M297.407 399.443C290.867 395 290.967 384.767 290.967 384.767L297.623 386.431C297.706 389.626 297.69 393.869 297.407 399.443Z" fill="black"/>
<path d="M237.087 449.962L192.641 442.491L181.143 476.703L188.498 490.065L237.02 496.454L246.854 459.181L237.087 449.962Z" fill="#1E2022"/>
<path opacity="0.4" d="M181.143 476.703L184.005 481.911L184.654 483.059L188.498 490.065L237.02 496.454L246.854 459.181L242.678 455.254L241.397 454.039L237.103 449.962L192.641 442.491L181.143 476.703Z" fill="black"/>
<path opacity="0.2" d="M246.854 459.181L202.858 452.342L192.641 442.491L237.103 449.962L246.854 459.181Z" fill="white"/>
<path opacity="0.1" d="M202.858 452.342L188.498 490.065L181.143 476.703L192.641 442.491L202.858 452.342Z" fill="white"/>
<path d="M184.005 481.911L184.654 483.059L197.949 447.733L242.678 455.254L241.396 454.039L197.151 446.95L184.005 481.911Z" fill="#263238"/>
<path d="M227.669 451.992L225.422 449.912L214.223 447.882L216.187 450.145L227.669 451.992Z" fill="#263238"/>
<path d="M231.995 452.824C231.995 452.824 232.511 441.077 232.194 440.294C231.878 439.512 216.12 436.966 214.939 436.717C213.757 436.467 208.566 447.916 208.566 447.916L209.464 449.297L212.443 449.696C212.443 449.696 216.22 439.829 216.603 439.579C220.92 440.038 225.209 440.738 229.449 441.676C229.782 441.942 228.484 450.911 228.484 450.911L229.499 452.375L231.995 452.824Z" fill="#263238"/>
<path d="M184.155 471.494L187.483 475.771L187.799 474.922L190.312 468.266L190.611 467.468L191.144 466.036C191.144 466.036 190.195 467.101 188.897 468.316C187.552 469.69 185.937 470.772 184.155 471.494Z" fill="#1E2022"/>
<path opacity="0.2" d="M185.237 471.811L187.716 474.922L190.229 468.266L190.528 467.468C189.149 469.329 187.331 470.821 185.237 471.811Z" fill="white"/>
<path opacity="0.2" d="M188.814 468.3H190.229L191.061 466.07C191.061 466.07 190.112 467.085 188.814 468.3Z" fill="black"/>
<path d="M182.94 463.125L182.324 469.148C184.811 468.012 187.58 467.641 190.278 468.083L190.595 467.251L192.525 462.076L192.741 461.544C189.392 461.214 186.015 461.759 182.94 463.125Z" fill="#1E2022"/>
<path d="M189.263 452.908C190.426 455.173 191.955 457.231 193.79 458.998L194.022 458.365L194.622 456.701L195.62 453.956L196.102 452.625L196.236 452.242C195.439 451.022 194.748 449.736 194.172 448.398L189.263 452.908Z" fill="#1E2022"/>
<path d="M199.447 445.153C200.054 446.103 200.524 447.134 200.845 448.215L201.544 448.332L202.509 448.481L204.056 448.764L205.537 449.014L206.053 449.097C206.027 446.786 205.164 444.563 203.624 442.84L199.447 445.153Z" fill="#1E2022"/>
<path opacity="0.2" d="M200.379 445.32C200.876 446.278 201.266 447.288 201.544 448.332L202.509 448.481C202.427 448.354 202.375 448.211 202.355 448.062C202.334 447.912 202.347 447.76 202.392 447.616C202.436 447.485 202.504 447.363 202.595 447.258C202.685 447.154 202.796 447.068 202.919 447.006C203.043 446.944 203.178 446.907 203.316 446.898C203.454 446.888 203.592 446.906 203.724 446.95C203.854 446.992 203.976 447.059 204.08 447.148C204.185 447.237 204.27 447.345 204.332 447.468C204.394 447.59 204.431 447.724 204.441 447.861C204.451 447.998 204.433 448.135 204.389 448.265C204.328 448.46 204.213 448.633 204.056 448.764L205.537 449.014C205.45 447.056 204.771 445.17 203.59 443.606L200.379 445.32Z" fill="white"/>
<path opacity="0.2" d="M183.34 463.357L182.957 468.233C185.413 467.407 188.009 467.073 190.595 467.251L192.525 462.076C189.404 461.698 186.238 462.139 183.34 463.357ZM188.681 462.958C188.881 462.889 189.094 462.866 189.304 462.892C189.514 462.918 189.715 462.992 189.892 463.108C190.069 463.224 190.217 463.379 190.324 463.562C190.431 463.744 190.495 463.949 190.511 464.16C190.527 464.37 190.494 464.582 190.415 464.778C190.336 464.975 190.213 465.15 190.056 465.291C189.898 465.433 189.71 465.536 189.506 465.593C189.303 465.65 189.089 465.659 188.881 465.62C188.681 465.69 188.468 465.712 188.258 465.686C188.048 465.66 187.847 465.586 187.67 465.47C187.493 465.354 187.345 465.199 187.238 465.017C187.13 464.835 187.066 464.63 187.05 464.419C187.035 464.208 187.067 463.996 187.146 463.8C187.225 463.604 187.348 463.428 187.506 463.287C187.664 463.146 187.851 463.043 188.055 462.986C188.259 462.929 188.473 462.919 188.681 462.958Z" fill="white"/>
<path opacity="0.2" d="M190.112 453.174C191.206 455.053 192.519 456.795 194.022 458.365L194.621 456.701C194.281 456.564 194.008 456.3 193.859 455.964C193.71 455.629 193.697 455.249 193.823 454.904C193.927 454.562 194.156 454.272 194.464 454.09C194.772 453.909 195.137 453.849 195.487 453.923L195.969 452.591C195.124 451.656 194.438 450.588 193.939 449.43L190.112 453.174Z" fill="white"/>
<path d="M339.007 345.879L341.569 341.603L347.227 346.961C346.561 347.822 345.723 348.535 344.766 349.053C343.809 349.572 342.754 349.885 341.669 349.973L339.007 345.879Z" fill="#E4897B"/>
<path d="M345.53 335.878L349.54 341.519L347.227 346.961L341.569 341.603L345.53 335.878Z" fill="#E4897B"/>
<path d="M294.728 374.999C299.333 374.054 303.887 372.877 308.373 371.471C312.695 370.189 316.842 368.379 320.719 366.08C321.073 365.858 321.413 365.614 321.735 365.348L322.883 364.283C323.681 363.517 324.547 362.619 325.295 361.82C326.876 360.056 328.507 358.243 330.071 356.379C333.283 352.685 336.411 348.841 339.639 345.097L343.849 347.893C341.536 352.402 338.974 356.695 336.261 360.972C334.88 363.085 333.466 365.215 331.902 367.295C331.119 368.326 330.238 369.375 329.406 370.423C328.973 370.939 328.424 371.471 327.941 372.004C327.346 372.593 326.718 373.149 326.061 373.668C321.643 376.838 316.782 379.338 311.634 381.089C306.712 382.87 301.646 384.223 296.492 385.133L294.728 374.999Z" fill="#DC897C"/>
<path d="M292.581 389.542C299.586 395.616 314.978 385.199 314.978 385.199L308.838 370.04C303.19 370.699 297.618 371.897 292.198 373.618C282.464 376.929 287.223 384.917 292.581 389.542Z" fill="#1E2022"/>
<path opacity="0.6" d="M292.581 389.542C299.586 395.616 314.978 385.199 314.978 385.199L308.838 370.04C303.19 370.699 297.618 371.897 292.198 373.618C282.464 376.929 287.223 384.917 292.581 389.542Z" fill="#FAFAFA"/>
</svg>
